<?xml version="1.0" standalone="no"?>
<!DOCTYPE svg PUBLIC "-//W3C//DTD SVG 20010904//EN"
 "http://www.w3.org/TR/2001/REC-SVG-20010904/DTD/svg10.dtd">
<svg version="1.0" xmlns="http://www.w3.org/2000/svg"
 width="512.000000pt" height="512.000000pt" viewBox="0 0 512.000000 512.000000"
 preserveAspectRatio="xMidYMid meet">
<g transform="translate(0.000000,512.000000) scale(0.100000,-0.100000)"
fill="#000000" stroke="none">
<path d="M1370 4380 c-110 -20 -211 -74 -293 -155 -65 -66 -107 -133 -136
-225 -22 -65 -22 -66 -22 -1440 1 -1372 1 -1375 22 -1440 67 -207 232 -348
448 -382 36 -6 169 -8 305 -6 227 4 245 6 307 30 182 68 300 193 356 373 17
57 18 128 18 1425 0 1297 -1 1368 -18 1425 -29 92 -76 174 -138 236 -65 65
-123 102 -218 138 -64 24 -76 25 -326 27 -143 1 -280 -1 -305 -6z m538 -374
c36 -19 78 -65 91 -99 8 -20 11 -440 11 -1347 0 -907 -3 -1327 -11 -1347 -13
-34 -55 -80 -91 -99 -34 -17 -470 -20 -515 -3 -38 14 -83 57 -99 96 -12 27
-14 254 -14 1352 0 910 3 1328 11 1348 13 34 44 70 84 94 27 17 53 19 268 19
185 0 244 -3 265 -14z"/>
<path d="M3200 4380 c-207 -38 -373 -188 -437 -395 -17 -57 -18 -128 -18
-1425 0 -1297 1 -1368 18 -1425 57 -185 187 -317 377 -381 49 -17 88 -19 335
-19 247 0 286 2 335 19 193 66 335 215 379 399 16 69 16 2745 0 2814 -20 85
-77 188 -139 251 -66 68 -122 104 -219 141 -64 24 -76 25 -326 27 -143 1 -280
-1 -305 -6z m538 -374 c36 -19 78 -65 91 -99 8 -20 11 -440 11 -1348 0 -1098
-2 -1325 -14 -1352 -16 -39 -61 -82 -99 -96 -45 -17 -481 -14 -515 3 -36 19
-78 65 -91 99 -8 20 -11 442 -11 1356 l0 1327 27 41 c51 79 65 83 336 83 186
0 244 -3 265 -14z"/>
</g>
</svg>
