<?xml version="1.0" standalone="no"?>
<!DOCTYPE svg PUBLIC "-//W3C//DTD SVG 20010904//EN"
 "http://www.w3.org/TR/2001/REC-SVG-20010904/DTD/svg10.dtd">
<svg version="1.0" xmlns="http://www.w3.org/2000/svg"
 width="600.000000pt" height="600.000000pt" viewBox="0 0 600.000000 600.000000"
 preserveAspectRatio="xMidYMid meet">
<g transform="translate(0.000000,600.000000) scale(0.100000,-0.100000)"
fill="#000000" stroke="none">
<path d="M1594 5081 c-101 -25 -214 -125 -256 -228 l-23 -58 0 -1795 0 -1795
23 -57 c53 -132 182 -226 322 -235 112 -8 161 10 335 123 194 125 225 146 565
365 157 102 674 437 1150 745 476 307 882 576 902 596 48 48 83 118 98 196 22
110 -18 240 -98 320 -20 20 -388 264 -817 542 -429 277 -877 567 -995 643
-118 77 -298 193 -400 259 -102 66 -268 173 -369 239 -106 69 -205 125 -234
134 -53 16 -150 18 -203 6z m460 -598 c561 -364 2008 -1300 2086 -1349 107
-66 125 -85 125 -134 0 -50 -14 -63 -143 -146 -102 -65 -1008 -650 -1217 -785
-1088 -706 -1092 -709 -1129 -709 -39 0 -86 35 -86 65 0 8 -1 717 -1 1575 0
858 1 1567 1 1575 0 30 47 65 86 65 31 0 77 -26 278 -157z"/>
</g>
</svg>
