<?xml version="1.0" standalone="no"?>
<!DOCTYPE svg PUBLIC "-//W3C//DTD SVG 20010904//EN"
 "http://www.w3.org/TR/2001/REC-SVG-20010904/DTD/svg10.dtd">
<svg version="1.0" xmlns="http://www.w3.org/2000/svg"
 width="600.000000pt" height="600.000000pt" viewBox="0 0 600.000000 600.000000"
 preserveAspectRatio="xMidYMid meet">
<g transform="translate(0.000000,600.000000) scale(0.100000,-0.100000)"
fill="#000000" stroke="none">
<path d="M2867 5326 c-20 -8 -43 -18 -50 -23 -6 -6 -124 -91 -262 -190 -137
-98 -444 -319 -682 -491 l-431 -311 -409 -3 -408 -3 -67 -27 c-166 -66 -281
-185 -340 -348 l-23 -65 0 -865 0 -865 23 -65 c59 -163 174 -282 340 -348 l67
-27 409 -3 409 -3 286 -208 c834 -607 1100 -796 1135 -808 53 -19 190 -18 267
2 166 43 305 154 373 299 59 124 56 17 56 2031 0 1624 -2 1858 -15 1910 -50
196 -210 360 -400 410 -72 18 -226 19 -278 1z m206 -370 c42 -17 93 -76 107
-123 8 -27 10 -565 8 -1858 l-3 -1820 -23 -38 c-28 -44 -96 -87 -138 -87 -22
0 -89 43 -275 177 -135 98 -428 309 -652 468 l-406 290 0 1035 -1 1035 407
290 c224 160 517 370 652 468 150 108 254 177 268 177 13 0 38 -6 56 -14z
m-1758 -1956 l0 -940 -298 0 c-246 0 -304 3 -335 15 -49 21 -81 52 -103 100
-18 38 -19 83 -19 823 0 684 2 787 15 820 21 49 52 81 100 103 36 17 70 19
340 19 l300 0 0 -940z"/>
<path d="M4067 4677 c-126 -40 -170 -205 -79 -300 47 -50 78 -60 213 -68 430
-26 810 -251 1038 -613 349 -558 227 -1300 -284 -1712 -221 -179 -465 -274
-752 -293 -142 -9 -172 -19 -221 -75 -72 -82 -48 -221 48 -275 54 -30 99 -34
232 -21 269 25 495 97 714 225 519 306 834 855 834 1455 0 459 -177 879 -506
1202 -283 278 -629 438 -1033 478 -126 12 -155 12 -204 -3z"/>
<path d="M4078 3931 c-133 -43 -183 -198 -96 -297 45 -51 79 -65 183 -74 246
-24 420 -163 501 -400 14 -40 19 -84 19 -160 0 -110 -13 -166 -61 -261 -57
-115 -177 -221 -302 -266 -36 -13 -107 -28 -158 -33 -158 -15 -219 -68 -219
-190 0 -79 26 -125 90 -162 34 -20 53 -23 125 -21 342 7 662 220 811 538 67
143 82 217 82 395 0 179 -15 252 -83 396 -122 261 -372 461 -648 518 -90 19
-211 27 -244 17z"/>
</g>
</svg>
